<svg width="239" height="38" viewBox="0 0 239 38" fill="none" xmlns="http://www.w3.org/2000/svg">
<path fill-rule="evenodd" clip-rule="evenodd" d="M11.4905 2.18615C3.73499 6.03804 3.26966 13.2248 5.82897 19.0414C7.56103 6.60678 33.9556 5.59856 35.5325 19.2999C39.462 13.4833 36.7475 6.45167 30.0003 2.2637C23.8734 -0.631683 17.6949 -0.786793 11.4905 2.18615Z" fill="url(#paint0_linear)"/>
<path fill-rule="evenodd" clip-rule="evenodd" d="M23.7441 36.3619C23.77 37.5252 24.3129 37.8096 25.0884 37.732C35.61 36.517 43.7274 24.5736 40.9355 15.0084C39.2034 9.24353 34.8345 4.35757 30.0002 2.26359C38.402 11.3375 36.9285 20.7217 27.7511 24.9096C25.9932 25.7886 25.1918 25.2457 24.4938 27.6758C23.8217 30.4677 23.4856 33.3114 23.7441 36.3619ZM17.7465 36.2844C17.7207 37.4735 17.1778 37.7579 16.4023 37.6545C5.88064 36.4395 -2.23677 24.496 0.555206 14.9309C2.28727 9.19183 6.65619 4.30587 11.4905 2.18604C3.08867 11.26 4.56221 20.6441 13.7395 24.8321C15.4975 25.7369 16.2989 25.1681 16.9969 27.6241C17.669 30.3902 18.0051 33.2597 17.7465 36.2844Z" fill="url(#paint1_linear)"/>
<path d="M49.9946 20.0938C52.0519 22.357 54.5894 23.4542 57.6069 23.4542C60.6244 23.4542 63.1618 22.357 65.2192 20.0938C67.2766 17.8993 68.3053 15.0875 68.3053 11.7271C68.3053 8.43529 67.2766 5.62353 65.2192 3.3604C63.1618 1.16585 60.6244 0 57.6069 0C54.5894 0 52.0519 1.16585 49.9946 3.3604C48.0057 5.62353 46.9771 8.43529 46.9771 11.7271C46.9771 15.0875 48.0057 17.8993 49.9946 20.0938ZM57.6069 18.5851C55.961 18.5851 54.5894 17.8993 53.4235 16.5963C52.3263 15.2933 51.7776 13.7159 51.7776 11.7271C51.7776 9.80689 52.3263 8.16098 53.4235 6.92654C54.5894 5.55495 55.961 4.93773 57.6069 4.93773C59.3214 4.93773 60.693 5.55495 61.7902 6.92654C62.9561 8.16098 63.5047 9.80689 63.5047 11.7271C63.5047 13.7159 62.9561 15.2933 61.7902 16.5963C60.693 17.8993 59.3214 18.5851 57.6069 18.5851ZM75.0947 23.0428V10.0126L80.3753 20.6425H83.4614L88.742 10.0126V23.0428H93.2683V0.411478H88.742L81.9527 13.8531L75.0947 0.411478H70.5684V23.0428H75.0947ZM106.504 23.0428C108.424 23.0428 110.002 22.4255 111.305 21.1911C112.608 19.8881 113.294 18.3793 113.294 16.4591C113.294 14.3331 112.265 12.4129 110.619 11.2471C111.853 10.0126 112.471 8.50387 112.471 6.7208C112.471 4.93773 111.853 3.42898 110.619 2.26313C109.385 1.02869 107.807 0.411478 105.956 0.411478H96.0115V23.0428H106.504ZM106.436 13.7159C107.601 13.7159 108.493 14.7446 108.493 16.0476C108.493 17.3506 107.601 18.3108 106.436 18.3108H100.606V13.7159H106.436ZM105.887 5.14347C106.916 5.14347 107.67 6.03501 107.67 7.20086C107.67 7.4066 107.67 7.47518 107.67 7.54376C107.533 8.57245 106.778 9.25825 105.887 9.25825H100.606V5.14347H105.887ZM128.655 13.8531C128.655 15.2933 128.244 16.4591 127.352 17.3506C126.529 18.3108 125.501 18.7222 124.266 18.7222C123.032 18.7222 121.935 18.3108 121.112 17.3506C120.22 16.4591 119.877 15.2933 119.877 13.8531V0.411478H115.282V13.9217C115.282 16.5963 116.105 18.8594 117.82 20.711C119.534 22.5627 121.729 23.4542 124.266 23.4542C126.804 23.4542 128.93 22.5627 130.644 20.711C132.359 18.8594 133.25 16.5963 133.25 13.9217V0.411478H128.655V13.8531ZM144.154 23.0428C147.172 23.0428 149.641 21.9455 151.698 19.8195C153.756 17.625 154.784 14.9504 154.784 11.7271C154.784 8.57245 153.756 5.89785 151.698 3.7033C149.641 1.50875 147.172 0.411478 144.154 0.411478H135.788V23.0428H144.154ZM144.154 5.14347C145.8 5.14347 147.172 5.82927 148.269 7.0637C149.435 8.29813 149.984 9.87547 149.984 11.7271C149.984 13.5788 149.435 15.1561 148.338 16.4591C147.172 17.6935 145.8 18.3108 144.154 18.3108H140.382V5.14347H144.154ZM171.038 5.34921C170.626 3.77188 169.803 2.53745 168.432 1.50875C167.129 0.548637 165.551 0 163.7 0C161.642 0 159.928 0.685796 158.625 1.98881C157.39 3.22324 156.773 4.86915 156.773 6.99512C156.773 8.29813 157.116 9.46399 157.527 10.2869C158.007 11.0413 159.036 11.8643 159.585 12.3443C159.928 12.5501 160.408 12.7558 161.025 13.0987L162.397 13.6473C162.739 13.7159 163.288 13.9217 163.974 14.196L164.248 14.2646C165.414 14.676 166.1 14.9504 166.786 15.5676C167.129 15.9105 167.266 16.2534 167.266 16.6649C167.266 17.8993 165.963 18.7222 164.317 18.7222C162.465 18.7222 161.094 17.7621 160.751 16.4591L156.156 17.6935C156.567 19.408 157.527 20.7796 159.036 21.8769C160.476 22.9056 162.259 23.4542 164.317 23.4542C166.511 23.4542 168.363 22.837 169.803 21.4654C171.175 20.1624 171.929 18.4479 171.929 16.2534C171.792 13.4416 170.832 11.8643 169.117 10.9042C167.951 10.0812 167.334 9.87547 166.1 9.46399C164.454 8.91535 163.425 8.57245 163.014 8.36671C161.916 7.88666 161.368 7.26944 161.368 6.58364C161.368 5.48637 162.397 4.73199 163.768 4.73199C165.14 4.73199 166.237 5.48637 166.511 6.51506L171.038 5.34921ZM178.719 23.0428V10.0126L183.999 20.6425H187.017L192.297 10.0126V23.0428H196.824V0.411478H192.297L185.508 13.8531L178.719 0.411478H174.192V23.0428H178.719ZM203.201 23.0428L204.573 19.2709H213.077L214.448 23.0428H219.249L210.745 0.411478H206.973L198.401 23.0428H203.201ZM211.431 14.676H206.288L208.825 7.68092L211.431 14.676ZM225.284 23.0428V9.25825L234.885 23.0428H239V0.411478H234.542V14.2646L224.941 0.411478H220.826V23.0428H225.284Z" fill="#BA0B2F"/>
<path d="M51.4343 27.2258V37.1698H53.8346V33.878H55.892L57.9494 37.1698H60.624L58.3609 33.4665C59.5267 32.9179 60.2811 31.8206 60.2811 30.5176C60.2811 29.626 59.8696 28.8031 59.1152 28.1859C58.4294 27.5001 57.4693 27.2258 56.3721 27.2258H51.4343ZM56.3721 29.2831C57.195 29.2831 57.7437 29.8318 57.7437 30.5176C57.7437 31.272 57.195 31.8206 56.3721 31.8206H53.8346V29.2831H56.3721ZM63.4358 27.2258V37.1698H71.5282V35.1124H65.9046V33.1922H70.568V31.1348H65.9046V29.2831H71.4596V27.2258H63.4358ZM76.8774 33.878H79.2777C80.3749 33.878 81.2665 33.6037 82.0208 32.9179C82.7752 32.3007 83.1181 31.4777 83.1181 30.5176C83.1181 29.626 82.7752 28.8031 82.0208 28.1859C81.2665 27.5001 80.3749 27.2258 79.2777 27.2258H74.4771V37.1698H76.8774V33.878ZM79.2777 29.2831C80.032 29.2831 80.6492 29.8318 80.6492 30.5176C80.6492 31.272 80.032 31.8206 79.2777 31.8206H76.8774V29.2831H79.2777ZM92.7193 33.1236C92.7193 33.7408 92.5135 34.2209 92.0335 34.7009C91.622 35.1124 91.0733 35.2496 90.3876 35.2496C89.7703 35.2496 89.2217 35.1124 88.7416 34.7009C88.3302 34.2209 88.1244 33.7408 88.1244 33.1236V27.2258H85.7241V33.1236C85.7241 34.358 86.1356 35.3182 87.0271 36.1411C87.9187 36.9641 89.0845 37.3755 90.3876 37.3755C91.7591 37.3755 92.8564 36.9641 93.748 36.1411C94.6395 35.3182 95.1195 34.358 95.1195 33.1236V27.2258H92.7193V33.1236ZM103.829 37.1698C104.789 37.1698 105.681 36.8955 106.367 36.3468C106.984 35.7982 107.327 35.1124 107.327 34.2895C107.327 33.3293 106.847 32.5064 105.955 31.9578C106.641 31.4091 106.915 30.7919 106.915 29.9689C106.915 29.2146 106.641 28.5288 105.955 27.9801C105.269 27.5001 104.515 27.2258 103.486 27.2258H98.2742V37.1698H103.829ZM103.761 33.055C104.378 33.055 104.858 33.5351 104.858 34.0837C104.858 34.6324 104.378 35.1124 103.761 35.1124H100.674V33.055H103.761ZM103.486 29.2831C104.035 29.2831 104.446 29.6946 104.446 30.1747C104.446 30.2433 104.446 30.3118 104.378 30.3118C104.309 30.7919 103.966 31.0662 103.486 31.0662H100.674V29.2831H103.486ZM110.344 27.2258V37.1698H117.957V35.1124H112.813V27.2258H110.344ZM123.169 37.1698V27.2258H120.768V37.1698H123.169ZM126.46 37.1698H128.861V32.9179L132.701 37.1698H135.719L131.192 32.0949L135.444 27.2258H132.358L128.861 31.2034V27.2258H126.46V37.1698ZM144.497 37.1698V27.2258H142.097V37.1698H144.497ZM150.052 37.1698V31.0662L155.127 37.1698H157.321V27.2258H154.99V33.3293L149.915 27.2258H147.72V37.1698H150.052ZM164.934 37.1698C166.511 37.1698 167.814 36.6897 168.911 35.7296C170.008 34.7695 170.489 33.6037 170.489 32.1635C170.489 30.7919 170.008 29.626 168.911 28.6659C167.814 27.7058 166.511 27.2258 164.934 27.2258H160.545V37.1698H164.934ZM164.934 29.2831C165.757 29.2831 166.511 29.5575 167.128 30.1061C167.677 30.6547 168.02 31.4091 168.02 32.1635C168.02 32.9864 167.677 33.6722 167.128 34.2209C166.511 34.8381 165.757 35.1124 164.934 35.1124H162.945V29.2831H164.934ZM174.946 35.8668C175.975 36.8955 177.347 37.3755 178.924 37.3755C180.501 37.3755 181.804 36.8955 182.901 35.8668C183.999 34.9067 184.547 33.6722 184.547 32.1635C184.547 30.7233 183.999 29.4889 182.901 28.5288C181.804 27.5001 180.501 27.02 178.924 27.02C177.347 27.02 175.975 27.5001 174.946 28.5288C173.849 29.4889 173.3 30.7233 173.3 32.1635C173.3 33.6722 173.849 34.9067 174.946 35.8668ZM178.924 35.181C178.032 35.181 177.347 34.9067 176.729 34.358C176.112 33.7408 175.838 33.055 175.838 32.1635C175.838 31.3405 176.112 30.5862 176.729 30.0375C177.347 29.4889 178.032 29.2146 178.924 29.2146C179.815 29.2146 180.501 29.4889 181.118 30.0375C181.736 30.5862 182.01 31.3405 182.01 32.1635C182.01 33.055 181.736 33.7408 181.118 34.358C180.501 34.9067 179.815 35.181 178.924 35.181ZM189.828 37.1698V31.0662L194.903 37.1698H197.097V27.2258H194.766V33.3293L189.691 27.2258H187.496V37.1698H189.828ZM200.321 27.2258V37.1698H208.344V35.1124H202.721V33.1922H207.384V31.1348H202.721V29.2831H208.276V27.2258H200.321ZM218.837 29.3517C218.631 28.6659 218.151 28.1173 217.466 27.7058C216.78 27.2258 215.957 27.02 214.997 27.02C213.899 27.02 213.008 27.2943 212.322 27.843C211.636 28.3916 211.293 29.146 211.293 30.1061C211.293 30.6547 211.499 31.2034 211.773 31.5463C211.979 31.8892 212.528 32.2321 212.802 32.4378C213.008 32.575 213.214 32.6435 213.557 32.7807L214.311 33.055C214.517 33.055 214.791 33.1236 215.134 33.2608L215.271 33.3293C215.888 33.4665 216.231 33.6037 216.574 33.878C216.78 34.0151 216.848 34.1523 216.848 34.358C216.848 34.9067 216.163 35.2496 215.271 35.2496C214.311 35.2496 213.625 34.8381 213.419 34.2895L211.019 34.8381C211.225 35.5925 211.705 36.2097 212.528 36.6212C213.282 37.1012 214.242 37.3755 215.271 37.3755C216.437 37.3755 217.397 37.1012 218.151 36.484C218.906 35.9354 219.249 35.1124 219.249 34.1523C219.249 32.9179 218.7 32.2321 217.808 31.8206C217.191 31.4777 216.848 31.3405 216.231 31.2034C215.34 30.9291 214.86 30.7919 214.654 30.7233C214.037 30.449 213.762 30.1747 213.762 29.9004C213.762 29.4203 214.311 29.0774 214.997 29.0774C215.751 29.0774 216.3 29.4203 216.437 29.9004L218.837 29.3517ZM224.666 37.1698V27.2258H222.266V37.1698H224.666ZM229.81 37.1698L230.564 35.5239H235.022L235.776 37.1698H238.245L233.788 27.2258H231.799L227.341 37.1698H229.81ZM234.13 33.4665H231.456L232.827 30.3804L234.13 33.4665Z" fill="#58585A"/>
<defs>
<linearGradient id="paint0_linear" x1="4.82521" y1="5.97145" x2="39.6758" y2="6.24258" gradientUnits="userSpaceOnUse">
<stop stop-color="#FF6600"/>
<stop offset="0.458824" stop-color="#FFAE4A"/>
<stop offset="1" stop-color="#FF6600"/>
</linearGradient>
<linearGradient id="paint1_linear" x1="22.047" y1="29.5665" x2="21.9115" y2="-14.3695" gradientUnits="userSpaceOnUse">
<stop stop-color="#0058A8"/>
<stop offset="0.301961" stop-color="#008CCC"/>
<stop offset="1" stop-color="#00C0F1"/>
</linearGradient>
</defs>
</svg>
